<svg width="24" height="24" viewBox="0 0 24 24" fill="none" xmlns="http://www.w3.org/2000/svg">
<g clip-path="url(#clip0_105_573)">
<path d="M6.30078 11.4023C5.87645 11.4023 5.46903 11.5701 5.16895 11.8701C4.86888 12.1702 4.70024 12.5776 4.7002 13.002V16.1436L5.47852 15.624C5.96069 15.302 6.53072 15.1375 7.11035 15.1533C7.69011 15.1692 8.25094 15.3648 8.71484 15.7129V15.7119L9.00684 15.9326H9.00781C9.28477 16.1403 9.62162 16.2529 9.96777 16.2529C10.2707 16.2529 10.5665 16.1666 10.8213 16.0059L10.9277 15.9326L11.2217 15.7129C11.7065 15.3493 12.2964 15.1523 12.9023 15.1523C13.5082 15.1524 14.0974 15.3494 14.582 15.7129L14.876 15.9326C15.1529 16.1403 15.4898 16.2529 15.8359 16.2529C16.1821 16.2529 16.519 16.1402 16.7959 15.9326H16.7969L17.0889 15.7129C17.5528 15.3648 18.1136 15.1692 18.6934 15.1533C19.273 15.1375 19.843 15.302 20.3252 15.624L21.1035 16.1436V13.002C21.1035 12.5776 20.9348 12.1702 20.6348 11.8701C20.3347 11.5701 19.9272 11.4023 19.5029 11.4023H6.30078ZM12.9023 2.5C13.0318 2.5001 13.1581 2.54161 13.2617 2.61914C13.6892 2.95488 14.087 3.327 14.4502 3.73145V3.73242C15.0146 4.36689 15.702 5.33813 15.7021 6.40039C15.7021 7.14316 15.4071 7.85564 14.8818 8.38086C14.3567 8.90595 13.6449 9.20105 12.9023 9.20117C12.1596 9.20117 11.4471 8.90608 10.9219 8.38086C10.3967 7.85564 10.1016 7.14316 10.1016 6.40039C10.1018 5.33827 10.7896 4.36749 11.3535 3.73242L11.3525 3.73145C11.7157 3.32701 12.1136 2.95489 12.541 2.61914L12.542 2.62012C12.6459 2.54225 12.7725 2.5 12.9023 2.5ZM12.5488 4.21387C12.446 4.31628 12.3463 4.42176 12.25 4.53027C11.9691 4.84657 11.7381 5.16587 11.5752 5.4707C11.4165 5.76767 11.3019 6.08912 11.3018 6.40039C11.3018 6.82479 11.4704 7.23213 11.7705 7.53223C12.0706 7.83232 12.4779 8.00098 12.9023 8.00098C13.3266 8.00086 13.7332 7.83219 14.0332 7.53223C14.3333 7.23213 14.502 6.82479 14.502 6.40039C14.5018 6.08944 14.3882 5.76797 14.2295 5.4707C14.0666 5.16568 13.8354 4.84679 13.5537 4.53027C13.4574 4.42176 13.3577 4.31628 13.2549 4.21387L12.9023 3.8623L12.5488 4.21387ZM4.60059 17.5039L4.26465 17.3877C4.05832 17.3157 3.87679 17.1858 3.74219 17.0137C3.64122 16.8845 3.57014 16.7353 3.53223 16.5771L3.50586 16.416L3.5 16.3027V13.002C3.49999 12.2878 3.77288 11.6007 4.2627 11.0811C4.7513 10.5629 5.41915 10.2495 6.12988 10.2061L6.31445 10.2012H19.5029C20.2173 10.2011 20.9051 10.4748 21.4248 10.9648C21.8793 11.3935 22.1754 11.9598 22.2705 12.5723L22.2988 12.8379L22.3037 13.0166V16.3027C22.3037 16.7903 22.0211 17.1681 21.6348 17.3467L21.5186 17.3936L21.2031 17.5195V21.8037C21.2033 22.2327 21.0417 22.6464 20.75 22.9609C20.4588 23.2749 20.0597 23.4664 19.6328 23.499L19.5029 23.5039H6.30078C5.87178 23.504 5.45812 23.3425 5.14355 23.0508C4.86822 22.7955 4.6867 22.4571 4.62402 22.0898L4.60449 21.9316L4.60059 21.8037V17.5039ZM20.0029 16.877L19.8018 16.7275L19.7285 16.6719C19.4806 16.4862 19.184 16.3769 18.875 16.3564C18.5653 16.336 18.2559 16.4056 17.9854 16.5576L17.9561 16.5752L17.835 16.6543L17.8213 16.6631L17.8086 16.6729L17.5166 16.8926C17.0585 17.2363 16.5059 17.4321 15.9336 17.4521C15.4326 17.4697 14.9373 17.3522 14.499 17.1143L14.3154 17.0049L14.1553 16.8926L13.8613 16.6729H13.8623C13.6141 16.4866 13.3165 16.3769 13.0068 16.3564C12.6973 16.3361 12.3886 16.4058 12.1182 16.5576L12.0889 16.5752L11.9678 16.6543L11.9551 16.6631L11.9424 16.6729L11.6484 16.8926C11.1904 17.2361 10.6376 17.4311 10.0654 17.4512C9.49481 17.4711 8.9322 17.3158 8.45215 17.0068L8.27832 16.8857L7.99512 16.6729C7.74687 16.4866 7.44934 16.3769 7.13965 16.3564C6.82997 16.336 6.52058 16.4056 6.25 16.5576L6.23535 16.5664L6.22168 16.5752L6.10059 16.6543L6.0752 16.6719L6.00195 16.7275L5.80078 16.877V22.3037H20.0029V16.877Z" fill="#C3AB9D" stroke="#C3AB9D"/>
</g>
<defs>
<clipPath id="clip0_105_573">
<rect width="24" height="24" fill="white"/>
</clipPath>
</defs>
</svg>
