<svg width="22" height="24" viewBox="0 0 22 24" fill="none" xmlns="http://www.w3.org/2000/svg">
<path d="M15.6667 0H6.33333C5.71449 0 5.121 0.252856 4.68342 0.702944C4.24583 1.15303 4 1.76348 4 2.4V21.6C4 22.2365 4.24583 22.847 4.68342 23.2971C5.121 23.7471 5.71449 24 6.33333 24H15.6667C16.2855 24 16.879 23.7471 17.3166 23.2971C17.7542 22.847 18 22.2365 18 21.6V2.4C18 1.76348 17.7542 1.15303 17.3166 0.702944C16.879 0.252856 16.2855 0 15.6667 0ZM12.1667 22.8H9.83333V21.6H12.1667V22.8ZM15.6667 20.4H6.33333V3.6H15.6667V20.4Z" fill="#C3AB9D"/>
</svg>
